<mxfile host="app.diagrams.net" agent="Mozilla/5.0 (Windows NT 10.0; Win64; x64) AppleWebKit/537.36 (KHTML, like Gecko) Chrome/136.0.0.0 Safari/537.36" version="26.2.14">
  <diagram name="Halaman-1" id="aU_xdiGgSo6Epe1AttQ7">
    <mxGraphModel dx="1712" dy="996" grid="0" gridSize="10" guides="1" tooltips="1" connect="1" arrows="1" fold="1" page="0" pageScale="1" pageWidth="827" pageHeight="1169" math="0" shadow="0">
      <root>
        <mxCell id="0" />
        <mxCell id="1" parent="0" />
        <mxCell id="q5asn6ToluuEKilPD6a5-1" value="Architecture Multiprocessor" style="text;html=1;align=center;verticalAlign=middle;whiteSpace=wrap;rounded=0;labelBackgroundColor=none;fillColor=#0050ef;strokeColor=none;fontColor=#ffffff;" parent="1" vertex="1">
          <mxGeometry x="-1068" y="-103" width="197" height="30" as="geometry" />
        </mxCell>
        <mxCell id="q5asn6ToluuEKilPD6a5-4" value="" style="image;html=1;image=img/lib/clip_art/computers/Monitor_128x128.png" parent="1" vertex="1">
          <mxGeometry x="-1003" y="-45" width="62" height="60" as="geometry" />
        </mxCell>
        <mxCell id="q5asn6ToluuEKilPD6a5-15" value="" style="edgeStyle=none;curved=1;rounded=0;orthogonalLoop=1;jettySize=auto;html=1;fontSize=12;startSize=8;endSize=8;" parent="1" source="q5asn6ToluuEKilPD6a5-4" edge="1">
          <mxGeometry relative="1" as="geometry">
            <mxPoint x="-1003" y="-15" as="sourcePoint" />
            <mxPoint x="-1083" y="-15" as="targetPoint" />
          </mxGeometry>
        </mxCell>
        <mxCell id="q5asn6ToluuEKilPD6a5-17" value="Main Memory" style="text;html=1;align=center;verticalAlign=middle;whiteSpace=wrap;rounded=0;" parent="1" vertex="1">
          <mxGeometry x="-1170" y="7" width="99" height="12" as="geometry" />
        </mxCell>
        <mxCell id="q5asn6ToluuEKilPD6a5-18" value="System Controller" style="text;html=1;align=center;verticalAlign=middle;whiteSpace=wrap;rounded=0;" parent="1" vertex="1">
          <mxGeometry x="-1023" y="19" width="107" height="16" as="geometry" />
        </mxCell>
        <mxCell id="q5asn6ToluuEKilPD6a5-20" value="" style="edgeStyle=none;curved=1;rounded=0;orthogonalLoop=1;jettySize=auto;html=1;fontSize=12;startSize=8;endSize=8;" parent="1" source="q5asn6ToluuEKilPD6a5-4" edge="1">
          <mxGeometry relative="1" as="geometry">
            <mxPoint x="-941" y="-15" as="sourcePoint" />
            <mxPoint x="-856" y="-14.458381724391984" as="targetPoint" />
          </mxGeometry>
        </mxCell>
        <mxCell id="q5asn6ToluuEKilPD6a5-28" value="" style="edgeStyle=none;curved=1;rounded=0;orthogonalLoop=1;jettySize=auto;html=1;fontSize=12;startSize=8;endSize=8;" parent="1" source="q5asn6ToluuEKilPD6a5-21" target="q5asn6ToluuEKilPD6a5-27" edge="1">
          <mxGeometry relative="1" as="geometry" />
        </mxCell>
        <mxCell id="q5asn6ToluuEKilPD6a5-21" value="" style="sketch=0;outlineConnect=0;fontColor=#232F3E;gradientColor=none;fillColor=#7AA116;strokeColor=none;dashed=0;verticalLabelPosition=bottom;verticalAlign=top;align=center;html=1;fontSize=12;fontStyle=0;aspect=fixed;pointerEvents=1;shape=mxgraph.aws4.iot_analytics_data_store;" parent="1" vertex="1">
          <mxGeometry x="-1130" y="84.33" width="42" height="60.67" as="geometry" />
        </mxCell>
        <mxCell id="q5asn6ToluuEKilPD6a5-22" value="" style="sketch=0;pointerEvents=1;shadow=0;dashed=0;html=1;strokeColor=none;fillColor=#005F4B;labelPosition=center;verticalLabelPosition=bottom;verticalAlign=top;align=center;outlineConnect=0;shape=mxgraph.veeam2.ram;" parent="1" vertex="1">
          <mxGeometry x="-1151" y="-27" width="68" height="29" as="geometry" />
        </mxCell>
        <mxCell id="q5asn6ToluuEKilPD6a5-23" value="" style="image;aspect=fixed;html=1;points=[];align=center;fontSize=12;image=img/lib/azure2/general/Input_Output.svg;" parent="1" vertex="1">
          <mxGeometry x="-856" y="-40" width="64" height="55.00000000000001" as="geometry" />
        </mxCell>
        <mxCell id="q5asn6ToluuEKilPD6a5-27" value="" style="sketch=0;outlineConnect=0;fontColor=#232F3E;gradientColor=none;fillColor=#7AA116;strokeColor=none;dashed=0;verticalLabelPosition=bottom;verticalAlign=top;align=center;html=1;fontSize=12;fontStyle=0;aspect=fixed;pointerEvents=1;shape=mxgraph.aws4.iot_analytics_data_store;" parent="1" vertex="1">
          <mxGeometry x="-956" y="79.28" width="45.5" height="65.72" as="geometry" />
        </mxCell>
        <mxCell id="q5asn6ToluuEKilPD6a5-32" value="" style="edgeStyle=none;curved=1;rounded=0;orthogonalLoop=1;jettySize=auto;html=1;fontSize=12;startSize=8;endSize=8;" parent="1" source="q5asn6ToluuEKilPD6a5-21" target="q5asn6ToluuEKilPD6a5-29" edge="1">
          <mxGeometry relative="1" as="geometry">
            <mxPoint x="-1115" y="145" as="sourcePoint" />
            <mxPoint x="-1115" y="274" as="targetPoint" />
            <Array as="points">
              <mxPoint x="-1119" y="226" />
              <mxPoint x="-1119" y="456" />
            </Array>
          </mxGeometry>
        </mxCell>
        <mxCell id="q5asn6ToluuEKilPD6a5-29" value="" style="sketch=0;pointerEvents=1;shadow=0;dashed=0;html=1;strokeColor=none;fillColor=#434445;aspect=fixed;labelPosition=center;verticalLabelPosition=bottom;verticalAlign=top;align=center;outlineConnect=0;shape=mxgraph.vvd.cpu;" parent="1" vertex="1">
          <mxGeometry x="-1065" y="428" width="55" height="55" as="geometry" />
        </mxCell>
        <mxCell id="q5asn6ToluuEKilPD6a5-37" value="System Bus / Interconnect" style="text;html=1;align=center;verticalAlign=middle;whiteSpace=wrap;rounded=0;" parent="1" vertex="1">
          <mxGeometry x="-1018.5" y="196" width="183" height="22" as="geometry" />
        </mxCell>
        <mxCell id="q5asn6ToluuEKilPD6a5-38" value="" style="edgeStyle=none;curved=1;rounded=0;orthogonalLoop=1;jettySize=auto;html=1;fontSize=12;startSize=8;endSize=8;" parent="1" source="q5asn6ToluuEKilPD6a5-29" target="q5asn6ToluuEKilPD6a5-55" edge="1">
          <mxGeometry relative="1" as="geometry">
            <mxPoint x="-1059" y="312" as="sourcePoint" />
            <mxPoint x="-1039" y="375" as="targetPoint" />
            <Array as="points" />
          </mxGeometry>
        </mxCell>
        <mxCell id="q5asn6ToluuEKilPD6a5-44" value="" style="edgeStyle=none;curved=1;rounded=0;orthogonalLoop=1;jettySize=auto;html=1;fontSize=12;startSize=8;endSize=8;" parent="1" source="q5asn6ToluuEKilPD6a5-40" target="q5asn6ToluuEKilPD6a5-56" edge="1">
          <mxGeometry relative="1" as="geometry">
            <mxPoint x="-960" y="373" as="targetPoint" />
          </mxGeometry>
        </mxCell>
        <mxCell id="q5asn6ToluuEKilPD6a5-40" value="" style="sketch=0;pointerEvents=1;shadow=0;dashed=0;html=1;strokeColor=none;fillColor=#434445;aspect=fixed;labelPosition=center;verticalLabelPosition=bottom;verticalAlign=top;align=center;outlineConnect=0;shape=mxgraph.vvd.cpu;" parent="1" vertex="1">
          <mxGeometry x="-988" y="429.5" width="52" height="52" as="geometry" />
        </mxCell>
        <mxCell id="q5asn6ToluuEKilPD6a5-50" value="" style="edgeStyle=none;curved=1;rounded=0;orthogonalLoop=1;jettySize=auto;html=1;fontSize=12;startSize=8;endSize=8;" parent="1" source="q5asn6ToluuEKilPD6a5-41" target="q5asn6ToluuEKilPD6a5-57" edge="1">
          <mxGeometry relative="1" as="geometry">
            <mxPoint x="-882" y="370" as="targetPoint" />
          </mxGeometry>
        </mxCell>
        <mxCell id="q5asn6ToluuEKilPD6a5-41" value="" style="sketch=0;pointerEvents=1;shadow=0;dashed=0;html=1;strokeColor=none;fillColor=#434445;aspect=fixed;labelPosition=center;verticalLabelPosition=bottom;verticalAlign=top;align=center;outlineConnect=0;shape=mxgraph.vvd.cpu;" parent="1" vertex="1">
          <mxGeometry x="-908" y="431" width="52" height="52" as="geometry" />
        </mxCell>
        <mxCell id="q5asn6ToluuEKilPD6a5-54" value="" style="edgeStyle=none;curved=1;rounded=0;orthogonalLoop=1;jettySize=auto;html=1;fontSize=12;startSize=8;endSize=8;entryX=0.638;entryY=1.016;entryDx=0;entryDy=0;entryPerimeter=0;" parent="1" source="q5asn6ToluuEKilPD6a5-42" target="q5asn6ToluuEKilPD6a5-58" edge="1">
          <mxGeometry relative="1" as="geometry">
            <mxPoint x="-812" y="368" as="targetPoint" />
          </mxGeometry>
        </mxCell>
        <mxCell id="q5asn6ToluuEKilPD6a5-42" value="" style="sketch=0;pointerEvents=1;shadow=0;dashed=0;html=1;strokeColor=none;fillColor=#434445;aspect=fixed;labelPosition=center;verticalLabelPosition=bottom;verticalAlign=top;align=center;outlineConnect=0;shape=mxgraph.vvd.cpu;" parent="1" vertex="1">
          <mxGeometry x="-838" y="431" width="52" height="52" as="geometry" />
        </mxCell>
        <mxCell id="q5asn6ToluuEKilPD6a5-45" value="CPU" style="text;html=1;align=center;verticalAlign=middle;whiteSpace=wrap;rounded=0;" parent="1" vertex="1">
          <mxGeometry x="-1053.5" y="492" width="39" height="16" as="geometry" />
        </mxCell>
        <mxCell id="q5asn6ToluuEKilPD6a5-46" value="CPU" style="text;html=1;align=center;verticalAlign=middle;whiteSpace=wrap;rounded=0;" parent="1" vertex="1">
          <mxGeometry x="-980" y="492" width="39" height="16" as="geometry" />
        </mxCell>
        <mxCell id="q5asn6ToluuEKilPD6a5-47" value="CPU" style="text;html=1;align=center;verticalAlign=middle;whiteSpace=wrap;rounded=0;" parent="1" vertex="1">
          <mxGeometry x="-901.5" y="492" width="39" height="16" as="geometry" />
        </mxCell>
        <mxCell id="q5asn6ToluuEKilPD6a5-48" value="CPU" style="text;html=1;align=center;verticalAlign=middle;whiteSpace=wrap;rounded=0;" parent="1" vertex="1">
          <mxGeometry x="-831.5" y="492" width="39" height="16" as="geometry" />
        </mxCell>
        <mxCell id="q5asn6ToluuEKilPD6a5-55" value="" style="sketch=0;outlineConnect=0;fontColor=#232F3E;gradientColor=none;fillColor=#7AA116;strokeColor=none;dashed=0;verticalLabelPosition=bottom;verticalAlign=top;align=center;html=1;fontSize=12;fontStyle=0;aspect=fixed;pointerEvents=1;shape=mxgraph.aws4.iot_analytics_data_store;" parent="1" vertex="1">
          <mxGeometry x="-1060" y="279" width="45.5" height="65.72" as="geometry" />
        </mxCell>
        <mxCell id="q5asn6ToluuEKilPD6a5-56" value="" style="sketch=0;outlineConnect=0;fontColor=#232F3E;gradientColor=none;fillColor=#7AA116;strokeColor=none;dashed=0;verticalLabelPosition=bottom;verticalAlign=top;align=center;html=1;fontSize=12;fontStyle=0;aspect=fixed;pointerEvents=1;shape=mxgraph.aws4.iot_analytics_data_store;" parent="1" vertex="1">
          <mxGeometry x="-981.5" y="279" width="45.5" height="65.72" as="geometry" />
        </mxCell>
        <mxCell id="q5asn6ToluuEKilPD6a5-57" value="" style="sketch=0;outlineConnect=0;fontColor=#232F3E;gradientColor=none;fillColor=#7AA116;strokeColor=none;dashed=0;verticalLabelPosition=bottom;verticalAlign=top;align=center;html=1;fontSize=12;fontStyle=0;aspect=fixed;pointerEvents=1;shape=mxgraph.aws4.iot_analytics_data_store;" parent="1" vertex="1">
          <mxGeometry x="-908" y="279" width="45.5" height="65.72" as="geometry" />
        </mxCell>
        <mxCell id="q5asn6ToluuEKilPD6a5-58" value="" style="sketch=0;outlineConnect=0;fontColor=#232F3E;gradientColor=none;fillColor=#7AA116;strokeColor=none;dashed=0;verticalLabelPosition=bottom;verticalAlign=top;align=center;html=1;fontSize=12;fontStyle=0;aspect=fixed;pointerEvents=1;shape=mxgraph.aws4.iot_analytics_data_store;" parent="1" vertex="1">
          <mxGeometry x="-842" y="279" width="45.5" height="65.72" as="geometry" />
        </mxCell>
        <mxCell id="q5asn6ToluuEKilPD6a5-60" value="" style="strokeWidth=2;html=1;shape=mxgraph.flowchart.annotation_2;align=left;labelPosition=right;pointerEvents=1;direction=south;" parent="1" vertex="1">
          <mxGeometry x="-1039" y="227" width="224" height="50" as="geometry" />
        </mxCell>
        <mxCell id="q5asn6ToluuEKilPD6a5-61" value="" style="strokeWidth=2;html=1;shape=mxgraph.flowchart.annotation_1;align=left;pointerEvents=1;direction=south;" parent="1" vertex="1">
          <mxGeometry x="-973.5" y="253" width="93" height="22" as="geometry" />
        </mxCell>
        <mxCell id="q5asn6ToluuEKilPD6a5-62" value="" style="line;strokeWidth=2;direction=south;html=1;" parent="1" vertex="1">
          <mxGeometry x="-701" y="-107" width="10" height="606" as="geometry" />
        </mxCell>
        <mxCell id="q5asn6ToluuEKilPD6a5-63" value="Architecture Multiprocessor Symmetric" style="text;html=1;align=center;verticalAlign=middle;whiteSpace=wrap;rounded=0;labelBackgroundColor=none;fillColor=#0050ef;strokeColor=none;fontColor=#ffffff;" parent="1" vertex="1">
          <mxGeometry x="-604" y="-103" width="197" height="30" as="geometry" />
        </mxCell>
        <mxCell id="q5asn6ToluuEKilPD6a5-67" value="" style="edgeStyle=none;curved=1;rounded=0;orthogonalLoop=1;jettySize=auto;html=1;fontSize=12;startSize=8;endSize=8;" parent="1" edge="1">
          <mxGeometry relative="1" as="geometry">
            <mxPoint x="-506.0033333333333" y="61" as="sourcePoint" />
            <mxPoint x="-505.67" y="121" as="targetPoint" />
          </mxGeometry>
        </mxCell>
        <mxCell id="q5asn6ToluuEKilPD6a5-64" value="" style="image;html=1;image=img/lib/clip_art/computers/Monitor_128x128.png" parent="1" vertex="1">
          <mxGeometry x="-536.5" y="-45" width="62" height="60" as="geometry" />
        </mxCell>
        <mxCell id="q5asn6ToluuEKilPD6a5-68" value="Main Memory" style="text;html=1;align=center;verticalAlign=middle;whiteSpace=wrap;rounded=0;" parent="1" vertex="1">
          <mxGeometry x="-559" y="27" width="107" height="16" as="geometry" />
        </mxCell>
        <mxCell id="q5asn6ToluuEKilPD6a5-69" value="SYSTEM BUS" style="html=1;shadow=0;dashed=0;align=center;verticalAlign=middle;shape=mxgraph.arrows2.twoWayArrow;dy=0.65;dx=22;" parent="1" vertex="1">
          <mxGeometry x="-580" y="113" width="154" height="60" as="geometry" />
        </mxCell>
        <mxCell id="q5asn6ToluuEKilPD6a5-70" value="" style="sketch=0;outlineConnect=0;fontColor=#232F3E;gradientColor=none;fillColor=#7AA116;strokeColor=none;dashed=0;verticalLabelPosition=bottom;verticalAlign=top;align=center;html=1;fontSize=12;fontStyle=0;aspect=fixed;pointerEvents=1;shape=mxgraph.aws4.iot_analytics_data_store;" parent="1" vertex="1">
          <mxGeometry x="-625.5" y="224" width="45.5" height="65.72" as="geometry" />
        </mxCell>
        <mxCell id="q5asn6ToluuEKilPD6a5-71" value="" style="sketch=0;outlineConnect=0;fontColor=#232F3E;gradientColor=none;fillColor=#7AA116;strokeColor=none;dashed=0;verticalLabelPosition=bottom;verticalAlign=top;align=center;html=1;fontSize=12;fontStyle=0;aspect=fixed;pointerEvents=1;shape=mxgraph.aws4.iot_analytics_data_store;" parent="1" vertex="1">
          <mxGeometry x="-542" y="227" width="45.5" height="65.72" as="geometry" />
        </mxCell>
        <mxCell id="q5asn6ToluuEKilPD6a5-72" value="" style="sketch=0;outlineConnect=0;fontColor=#232F3E;gradientColor=none;fillColor=#7AA116;strokeColor=none;dashed=0;verticalLabelPosition=bottom;verticalAlign=top;align=center;html=1;fontSize=12;fontStyle=0;aspect=fixed;pointerEvents=1;shape=mxgraph.aws4.iot_analytics_data_store;" parent="1" vertex="1">
          <mxGeometry x="-458" y="227" width="45.5" height="65.72" as="geometry" />
        </mxCell>
        <mxCell id="q5asn6ToluuEKilPD6a5-74" value="" style="strokeWidth=2;html=1;shape=mxgraph.flowchart.annotation_1;align=left;pointerEvents=1;direction=south;" parent="1" vertex="1">
          <mxGeometry x="-514" y="208" width="80" height="15" as="geometry" />
        </mxCell>
        <mxCell id="q5asn6ToluuEKilPD6a5-75" value="" style="strokeWidth=2;html=1;shape=mxgraph.flowchart.annotation_1;align=left;pointerEvents=1;direction=south;" parent="1" vertex="1">
          <mxGeometry x="-610" y="208" width="96" height="16" as="geometry" />
        </mxCell>
        <mxCell id="q5asn6ToluuEKilPD6a5-76" value="" style="strokeWidth=2;html=1;shape=mxgraph.flowchart.annotation_1;align=left;pointerEvents=1;direction=south;" parent="1" vertex="1">
          <mxGeometry x="-433" y="207.5" width="101" height="16" as="geometry" />
        </mxCell>
        <mxCell id="XW188wM8u1SiaxXxBo0w-2" value="" style="edgeStyle=orthogonalEdgeStyle;rounded=0;orthogonalLoop=1;jettySize=auto;html=1;" edge="1" parent="1" source="q5asn6ToluuEKilPD6a5-78" target="q5asn6ToluuEKilPD6a5-84">
          <mxGeometry relative="1" as="geometry" />
        </mxCell>
        <mxCell id="q5asn6ToluuEKilPD6a5-78" value="" style="sketch=0;pointerEvents=1;shadow=0;dashed=0;html=1;strokeColor=none;fillColor=#005F4B;labelPosition=center;verticalLabelPosition=bottom;verticalAlign=top;align=center;outlineConnect=0;shape=mxgraph.veeam2.ram;" parent="1" vertex="1">
          <mxGeometry x="-636.75" y="370" width="68" height="29" as="geometry" />
        </mxCell>
        <mxCell id="q5asn6ToluuEKilPD6a5-79" value="" style="sketch=0;pointerEvents=1;shadow=0;dashed=0;html=1;strokeColor=none;fillColor=#005F4B;labelPosition=center;verticalLabelPosition=bottom;verticalAlign=top;align=center;outlineConnect=0;shape=mxgraph.veeam2.ram;" parent="1" vertex="1">
          <mxGeometry x="-532" y="370" width="68" height="29" as="geometry" />
        </mxCell>
        <mxCell id="XW188wM8u1SiaxXxBo0w-3" value="" style="edgeStyle=orthogonalEdgeStyle;rounded=0;orthogonalLoop=1;jettySize=auto;html=1;" edge="1" parent="1" source="q5asn6ToluuEKilPD6a5-80" target="q5asn6ToluuEKilPD6a5-85">
          <mxGeometry relative="1" as="geometry" />
        </mxCell>
        <mxCell id="q5asn6ToluuEKilPD6a5-80" value="" style="sketch=0;pointerEvents=1;shadow=0;dashed=0;html=1;strokeColor=none;fillColor=#005F4B;labelPosition=center;verticalLabelPosition=bottom;verticalAlign=top;align=center;outlineConnect=0;shape=mxgraph.veeam2.ram;" parent="1" vertex="1">
          <mxGeometry x="-438" y="370" width="68" height="29" as="geometry" />
        </mxCell>
        <mxCell id="q5asn6ToluuEKilPD6a5-81" value="" style="sketch=0;pointerEvents=1;shadow=0;dashed=0;html=1;strokeColor=none;fillColor=#005F4B;labelPosition=center;verticalLabelPosition=bottom;verticalAlign=top;align=center;outlineConnect=0;shape=mxgraph.veeam2.ram;" parent="1" vertex="1">
          <mxGeometry x="-344" y="370" width="68" height="29" as="geometry" />
        </mxCell>
        <mxCell id="q5asn6ToluuEKilPD6a5-82" value="Memory" style="text;html=1;align=center;verticalAlign=middle;whiteSpace=wrap;rounded=0;" parent="1" vertex="1">
          <mxGeometry x="-652" y="415" width="107" height="16" as="geometry" />
        </mxCell>
        <mxCell id="q5asn6ToluuEKilPD6a5-83" value="Memory" style="text;html=1;align=center;verticalAlign=middle;whiteSpace=wrap;rounded=0;" parent="1" vertex="1">
          <mxGeometry x="-551.5" y="415" width="107" height="16" as="geometry" />
        </mxCell>
        <mxCell id="q5asn6ToluuEKilPD6a5-84" value="Memory" style="text;html=1;align=center;verticalAlign=middle;whiteSpace=wrap;rounded=0;" parent="1" vertex="1">
          <mxGeometry x="-452" y="413.5" width="107" height="16" as="geometry" />
        </mxCell>
        <mxCell id="q5asn6ToluuEKilPD6a5-85" value="Memory" style="text;html=1;align=center;verticalAlign=middle;whiteSpace=wrap;rounded=0;" parent="1" vertex="1">
          <mxGeometry x="-356" y="415" width="107" height="16" as="geometry" />
        </mxCell>
        <mxCell id="q5asn6ToluuEKilPD6a5-86" value="" style="image;aspect=fixed;html=1;points=[];align=center;fontSize=12;image=img/lib/azure2/general/Input_Output.svg;" parent="1" vertex="1">
          <mxGeometry x="-364" y="223" width="64" height="55.00000000000001" as="geometry" />
        </mxCell>
        <mxCell id="XW188wM8u1SiaxXxBo0w-1" value="" style="endArrow=none;html=1;rounded=0;" edge="1" parent="1">
          <mxGeometry width="50" height="50" relative="1" as="geometry">
            <mxPoint x="-929.75" y="198" as="sourcePoint" />
            <mxPoint x="-930" y="150" as="targetPoint" />
          </mxGeometry>
        </mxCell>
        <mxCell id="XW188wM8u1SiaxXxBo0w-4" value="I/O Controller" style="text;html=1;align=center;verticalAlign=middle;whiteSpace=wrap;rounded=0;" vertex="1" parent="1">
          <mxGeometry x="-383" y="296.86" width="107" height="30" as="geometry" />
        </mxCell>
        <mxCell id="XW188wM8u1SiaxXxBo0w-5" value="Cache" style="text;html=1;align=center;verticalAlign=middle;whiteSpace=wrap;rounded=0;" vertex="1" parent="1">
          <mxGeometry x="-638.75" y="296.86" width="72" height="30" as="geometry" />
        </mxCell>
        <mxCell id="XW188wM8u1SiaxXxBo0w-6" value="Cache" style="text;html=1;align=center;verticalAlign=middle;whiteSpace=wrap;rounded=0;" vertex="1" parent="1">
          <mxGeometry x="-471.25" y="296.86" width="72" height="30" as="geometry" />
        </mxCell>
        <mxCell id="XW188wM8u1SiaxXxBo0w-7" value="Cache" style="text;html=1;align=center;verticalAlign=middle;whiteSpace=wrap;rounded=0;" vertex="1" parent="1">
          <mxGeometry x="-555.25" y="296.86" width="72" height="30" as="geometry" />
        </mxCell>
      </root>
    </mxGraphModel>
  </diagram>
</mxfile>
